PathFileType  4	(X/Y/Z) C:\Inversekin\DARPA\DARPA11\Files_W_HJCs\
DataRate	CameraRate	NumFrames	NumMarkers	Units	OrigDataRate	OrigDataStartFrame	OrigNumFrames
  100.0		  100.0		    8		     41		 mm	  100.0	      20	    153
Frame#	Time	R.Shoulder			L.Shoulder			R.Clavicle			L.Clavicle			R.Biceps			R.Elbow			R.Forearm			R.Wrist			L.Biceps			L.Elbow			L.Forearm			L.Wrist			R.ASIS			L.ASIS			R.PSIS			S2			L.PSIS			R.TH1			R.TH2			R.TH3			R.Knee			R.SH1			R.SH2			R.SH3			R.SH4			R.Ankle			R.Heel			R.MT5			R.Toe			L.TH1			L.TH2			L.TH3			L.TH4			L.Knee			L.SH1			L.SH2			L.SH3			L.Ankle			L.Heel			L.MT5			L.Toe			
		X1	Y1	Z1	X2	Y2	Z2	X3	Y3	Z3	X4	Y4	Z4	X5	Y5	Z5	X6	Y6	Z6	X7	Y7	Z7	X8	Y8	Z8	X9	Y9	Z9	X10	Y10	Z10	X11	Y11	Z11	X12	Y12	Z12	X13	Y13	Z13	X14	Y14	Z14	X15	Y15	Z15	X16	Y16	Z16	X17	Y17	Z17	X18	Y18	Z18	X19	Y19	Z19	X20	Y20	Z20	X21	Y21	Z21	X22	Y22	Z22	X23	Y23	Z23	X24	Y24	Z24	X25	Y25	Z25	X26	Y26	Z26	X27	Y27	Z27	X28	Y28	Z28	X29	Y29	Z29	X30	Y30	Z30	X31	Y31	Z31	X32	Y32	Z32	X33	Y33	Z33	X34	Y34	Z34	X35	Y35	Z35	X36	Y36	Z36	X37	Y37	Z37	X38	Y38	Z38	X39	Y39	Z39	X40	Y40	Z40	X41	Y41	Z41	

20	0.19000	409.037	1566.141	-306.984	676.823	1568.837	-305.187	512.615	1507.438	-202.844	567.098	1508.841	-202.240	202.490	1567.469	-331.878	115.560	1585.423	-387.676	116.735	1614.742	-239.302	108.079	1628.308	-121.973	859.391	1538.233	-331.500	980.404	1534.815	-348.458	995.962	1593.073	-216.992	997.639	1622.651	-108.415	407.980	1023.031	-163.588	663.150	1013.288	-184.169	474.627	1034.837	-380.325	517.433	1013.396	-397.116	565.817	1032.901	-387.742	313.038	796.507	-206.195	308.232	790.029	-315.249	320.873	661.533	-318.393	324.779	529.029	-275.980	306.990	436.543	-266.280	288.225	326.038	-273.272	303.859	437.781	-350.298	291.914	318.260	-358.016	294.212	113.467	-314.036	337.143	37.320	-391.077	252.349	34.095	-201.118	350.724	56.512	-91.749	708.933	794.814	-178.210	701.622	663.637	-190.272	751.036	811.910	-275.173	733.356	679.395	-303.391	709.976	532.149	-299.435	716.038	426.803	-276.053	737.094	445.131	-368.988	745.780	329.535	-382.812	752.950	115.680	-332.025	706.610	35.993	-416.662	801.533	39.835	-231.002	712.577	58.748	-120.990
21	0.20000	408.845	1565.850	-306.716	676.968	1568.837	-304.710	512.426	1507.443	-202.527	566.528	1508.839	-201.292	202.262	1566.937	-331.772	115.462	1585.005	-387.585	116.355	1613.291	-239.001	107.343	1626.357	-121.552	859.270	1538.363	-331.229	980.286	1535.080	-348.208	995.980	1592.484	-216.391	997.741	1621.226	-107.531	408.207	1022.810	-163.166	663.189	1013.242	-183.957	474.496	1034.891	-379.958	517.365	1013.345	-396.835	565.710	1032.863	-387.478	312.252	796.829	-205.710	308.198	789.982	-314.924	320.976	661.465	-318.173	324.684	529.028	-275.892	307.095	436.442	-266.238	288.184	325.973	-273.241	303.869	437.769	-350.263	291.953	318.199	-357.956	294.194	113.411	-314.017	337.080	37.242	-391.075	252.356	34.036	-201.108	350.635	56.452	-91.745	709.193	794.808	-178.025	701.536	663.562	-190.152	751.089	811.851	-275.028	733.237	679.367	-303.281	710.007	532.126	-299.425	716.045	426.814	-276.046	737.269	445.204	-368.972	745.789	329.534	-382.804	752.946	115.690	-332.015	706.546	35.906	-416.668	801.525	39.843	-231.005	712.526	58.657	-120.986
22	0.21000	408.749	1565.612	-306.497	676.892	1568.794	-304.285	512.483	1507.518	-202.199	566.663	1508.855	-200.847	202.276	1566.296	-331.717	115.411	1584.573	-387.451	116.123	1611.902	-238.621	106.773	1623.994	-121.253	859.374	1538.535	-330.869	980.080	1535.239	-347.980	995.966	1591.628	-215.679	998.564	1619.663	-106.864	408.381	1022.731	-162.786	663.516	1013.026	-183.753	474.501	1034.846	-379.645	517.255	1013.296	-396.512	565.650	1032.769	-387.222	312.261	796.709	-205.487	308.324	789.870	-314.701	320.880	661.474	-318.025	324.677	528.903	-275.829	307.098	436.392	-266.233	288.169	325.943	-273.213	304.029	437.707	-350.242	291.953	318.146	-357.945	294.175	113.329	-314.003	337.020	37.216	-391.079	252.352	33.990	-201.093	350.615	56.339	-91.707	709.235	794.751	-177.860	701.651	663.443	-189.959	751.109	811.697	-274.803	733.240	679.274	-303.182	710.010	532.008	-299.363	716.086	426.769	-276.028	737.373	445.231	-368.910	745.862	329.470	-382.839	752.963	115.661	-332.004	706.473	35.799	-416.640	801.546	39.789	-231.001	712.548	58.577	-120.978
23	0.22000	408.688	1565.476	-306.268	676.970	1568.850	-303.808	512.343	1507.461	-201.854	566.592	1508.909	-200.484	202.130	1565.937	-331.673	115.365	1584.343	-387.276	115.720	1610.536	-238.139	106.340	1621.590	-120.689	859.313	1538.762	-330.548	979.964	1535.425	-347.776	996.244	1590.713	-214.907	998.668	1618.051	-105.823	408.462	1022.561	-162.418	663.594	1012.873	-183.546	474.542	1034.767	-379.331	517.306	1013.301	-396.257	565.745	1032.705	-386.910	312.305	796.640	-205.265	308.481	789.892	-314.441	321.023	661.502	-317.927	324.649	528.936	-275.775	307.115	436.380	-266.233	288.177	325.933	-273.209	304.053	437.716	-350.228	291.991	318.186	-357.933	294.165	113.332	-313.995	337.014	37.185	-391.059	252.368	33.937	-201.099	350.632	56.252	-91.714	709.401	794.720	-177.614	701.824	663.235	-189.833	751.372	811.671	-274.543	733.253	678.901	-303.077	710.258	532.039	-299.266	716.239	426.787	-276.032	737.500	445.083	-368.882	745.889	329.399	-382.804	753.016	115.593	-331.979	706.403	35.695	-416.626	801.627	39.635	-231.038	712.568	58.494	-120.966
24	0.23000	408.582	1565.323	-306.032	676.855	1568.732	-303.369	511.017	1507.971	-200.521	566.641	1508.945	-200.091	202.003	1565.733	-331.561	115.371	1584.214	-387.031	115.427	1609.094	-237.609	105.632	1619.232	-120.208	859.253	1538.799	-330.252	980.011	1535.615	-347.592	996.465	1590.085	-214.290	998.788	1616.729	-104.989	408.611	1022.472	-162.079	663.998	1012.795	-183.226	474.756	1034.902	-379.066	517.432	1013.210	-395.937	565.804	1032.622	-386.577	314.320	795.611	-205.500	308.596	789.992	-314.272	321.041	661.512	-317.827	324.671	528.915	-275.743	307.128	436.372	-266.231	288.161	325.876	-273.191	304.065	437.735	-350.233	292.007	318.194	-357.922	294.184	113.390	-313.999	337.089	37.176	-391.055	252.362	33.940	-201.114	350.704	56.128	-91.688	709.447	794.607	-177.440	701.910	663.112	-189.731	751.616	811.711	-274.259	733.159	678.711	-302.917	710.282	531.857	-299.221	716.496	426.802	-276.000	737.638	445.059	-368.792	745.933	329.292	-382.712	753.063	115.509	-331.962	706.496	35.598	-416.609	801.679	39.523	-231.054	712.626	58.418	-120.961
25	0.24000	408.757	1565.303	-305.844	676.864	1568.638	-302.954	510.910	1507.540	-200.736	567.643	1508.505	-200.289	201.902	1565.517	-331.427	115.344	1584.154	-386.735	114.957	1607.933	-237.198	105.125	1616.771	-119.746	859.153	1538.870	-329.996	979.976	1535.810	-347.337	996.807	1589.123	-213.601	999.294	1614.910	-104.038	408.546	1022.445	-161.760	664.129	1012.739	-182.950	474.814	1034.967	-378.721	517.481	1013.196	-395.669	566.109	1032.583	-386.245	314.296	795.589	-205.291	308.660	790.031	-314.105	321.072	661.543	-317.765	324.706	528.971	-275.733	307.166	436.419	-266.252	288.169	325.922	-273.186	304.171	437.773	-350.262	292.047	318.262	-357.907	294.191	113.441	-313.990	337.181	37.214	-391.050	252.350	33.988	-201.110	350.815	56.084	-91.684	709.498	794.368	-177.220	701.953	662.959	-189.582	751.843	811.679	-274.026	733.407	678.669	-302.698	710.328	531.737	-299.125	716.714	426.751	-275.907	737.713	444.998	-368.720	746.175	329.232	-382.626	753.117	115.373	-331.933	706.520	35.581	-416.587	801.716	39.433	-231.047	712.749	58.358	-120.946
26	0.25000	408.804	1565.140	-305.668	677.026	1568.560	-302.480	510.753	1507.518	-200.443	566.736	1509.117	-199.368	201.788	1565.326	-331.235	115.411	1584.199	-386.407	114.270	1606.434	-236.544	104.504	1614.384	-119.070	859.327	1538.954	-329.598	979.923	1536.039	-347.034	996.613	1587.493	-212.336	1000.054	1612.998	-103.940	408.648	1022.477	-161.490	664.292	1012.678	-182.681	474.935	1034.974	-378.389	517.790	1013.330	-395.337	566.285	1032.641	-385.878	314.245	795.779	-205.113	308.696	790.081	-313.931	321.115	661.602	-317.660	324.963	528.942	-275.753	307.224	436.530	-266.232	288.244	326.004	-273.191	304.201	437.828	-350.279	292.074	318.358	-357.863	294.334	113.530	-313.981	337.232	37.247	-391.030	252.378	34.039	-201.098	350.913	55.991	-91.667	709.493	794.235	-176.969	702.203	662.934	-189.327	751.899	811.254	-273.806	733.519	678.588	-302.485	710.176	531.451	-298.990	716.805	426.653	-275.789	737.850	445.035	-368.555	746.264	329.128	-382.554	753.169	115.293	-331.915	706.607	35.585	-416.589	801.744	39.366	-231.063	712.787	58.244	-120.933
27	0.26000	408.652	1564.987	-305.556	677.132	1568.587	-302.074	512.425	1507.258	-200.453	566.663	1509.164	-199.030	201.777	1565.242	-331.071	115.417	1584.238	-386.003	113.763	1605.176	-236.023	103.830	1611.628	-118.463	859.380	1539.113	-329.270	979.908	1536.282	-346.715	996.843	1586.742	-211.732	1000.152	1611.341	-103.075	408.748	1022.482	-161.205	664.290	1012.557	-182.425	475.146	1035.070	-378.118	517.864	1013.344	-395.048	566.640	1032.648	-385.501	314.236	795.765	-204.954	308.752	790.141	-313.819	321.172	661.730	-317.582	325.002	528.999	-275.786	307.253	436.634	-266.244	288.340	326.064	-273.233	304.265	437.842	-350.312	292.274	318.308	-357.897	294.370	113.607	-313.994	337.296	37.287	-391.037	252.384	34.114	-201.083	350.994	55.952	-91.643	709.664	794.171	-176.727	701.991	662.774	-189.023	751.814	811.087	-273.532	733.802	678.558	-302.178	710.177	531.350	-298.867	716.955	426.640	-275.695	738.054	444.971	-368.400	746.409	329.151	-382.415	753.210	115.208	-331.879	706.767	35.600	-416.569	801.763	39.282	-231.044	712.850	58.248	-120.930
